<svg xmlns="http://www.w3.org/2000/svg" width="1606" height="94" style="vector-effect:non-scaling-stroke" preserveAspectRatio="xMidYMid meet" version="1.0"><g><title>Layer 1</title><g id="svg_1" fill="#000" transform="translate(0, 77) scale(0.1, -0.1)"><path id="svg_2" d="m9429.12896,671c-88.46202,-11 -140.88395,-36 -160.54218,-78c-42.59282,-95 -245.72782,-607 -245.72782,-623c0,-29 54.06012,-48 157.26581,-55c108.12024,-8 111.39661,-7 129.41665,42c9.82911,31 8.19093,33 -32.76371,33c-24.57278,0 -45.86919,7 -52.42194,16c-11.4673,19 201.49681,562 227.70778,582c9.82911,6 37.67827,12 63.88923,12c52.42194,0 55.69831,3 72.08016,48c9.82911,31 9.82911,32 -44.23101,31c-29.48734,-1 -80.27109,-5 -114.67298,-8z"/><path id="svg_3" d="m11000.14883,674c-3.27637,-5 -13.10548,-24 -19.65823,-41c-9.82911,-31 -8.19093,-33 32.76371,-33c24.57278,0 45.86919,-7 52.42194,-17c14.74367,-22 -204.77318,-560 -235.89871,-579c-13.10548,-8 -40.95464,-14 -62.25105,-14c-45.86919,0 -49.14556,-3 -65.52742,-49l-11.4673,-34l101.5675,7c126.14028,9 176.92403,23 204.77318,57c26.21097,29 270.3006,617 270.3006,647c0,10 -13.10548,26 -27.84915,35c-32.76371,17 -224.43141,34 -239.17508,21z"/><path id="svg_4" d="m235.6321,329c-116.31117,-291 -116.31117,-302 -29.48734,-316c63.88923,-11 265.38605,-7 317.80798,5c24.57278,6 55.69831,22 68.80379,34c14.74367,13 70.44198,134 124.5021,268c54.06012,135 103.20568,253 108.12024,263c8.19093,15 -3.27637,17 -80.27109,17l-90.1002,0l-93.37657,-237c-52.42194,-131 -104.84387,-248 -116.31117,-260c-27.84915,-26 -101.5675,-31 -114.67298,-8c-8.19093,12 132.69302,386 183.47677,488c8.19093,15 -3.27637,17 -80.27109,17l-88.46202,0l-109.75843,-271z"/><path id="svg_5" d="m1367.61826,300l-122.86391,-300l86.82383,0c63.88923,0 88.46202,4 96.65294,16c8.19093,13 14.74367,14 36.04008,4c57.33649,-30 247.36601,-3 285.04427,40c18.02004,21 131.05484,301 131.05484,325c0,38 -194.94407,64 -253.91875,35c-14.74367,-7 -27.84915,-11 -32.76371,-9c-3.27637,3 11.4673,46 31.12552,97l39.31645,92l-86.82383,0l-86.82383,0l-122.86391,-300zm311.25524,43c13.10548,-19 -72.08016,-236 -98.29113,-252c-26.21097,-16 -93.37657,-14 -103.20568,4c-16.38185,25 73.71835,244 104.84387,255c42.59282,15 85.18564,12 96.65294,-7z"/><path id="svg_6" d="m3756.09268,588c-6.55274,-12 -211.32593,-514 -229.34597,-566c-8.19093,-21 -3.27637,-22 78.6329,-22l86.82383,0l113.0348,283c62.25105,155 114.67298,290 119.58754,300c6.55274,14 -4.91456,17 -76.99472,17c-52.42194,0 -86.82383,-5 -91.73839,-12z"/><path id="svg_7" d="m4863.50606,505c-27.84915,-69 -42.59282,-93 -57.33649,-86c-21.29641,11 -58.97468,14 -144.16032,12c-42.59282,-1 -76.99472,-10 -113.0348,-29c-44.23101,-24 -57.33649,-45 -111.39661,-181c-34.40189,-85 -58.97468,-163 -54.06012,-173c3.27637,-10 21.29641,-23 37.67827,-29c42.59282,-14 165.45673,-14 208.04955,0c29.48734,10 36.04008,9 36.04008,-4c0,-13 16.38185,-15 85.18564,-13l85.18564,3l119.58754,290c65.52742,160 119.58754,293 119.58754,298c0,4 -39.31645,7 -86.82383,7l-86.82383,0l-37.67827,-95zm-86.82383,-158c22.9346,-16 -63.88923,-245 -96.65294,-258c-34.40189,-13 -96.65294,-11 -106.48206,5c-11.4673,20 85.18564,247 111.39661,257c31.12552,13 72.08016,11 91.73839,-4z"/><path id="svg_8" d="m7296.21148,569c-14.74367,-49 -14.74367,-49 70.44198,-49c90.1002,0 91.73839,1 108.12024,48l11.4673,32l-90.1002,0c-86.82383,0 -90.1002,-1 -99.92931,-31z"/><path id="svg_9" d="m14356.79086,583c-3.27637,-10 -11.4673,-28 -18.02004,-40c-9.82911,-22 -6.55274,-23 78.6329,-23l90.1002,0l16.38185,40l16.38185,40l-86.82383,0c-70.44198,0 -90.1002,-4 -96.65294,-17z"/><path id="svg_10" d="m15763.99218,588c-4.91456,-7 -55.69831,-134 -114.67298,-283c-58.97468,-148 -111.39661,-278 -116.31117,-287c-8.19093,-16 3.27637,-18 78.6329,-18l86.82383,0l119.58754,293c65.52742,160 117.94935,295 117.94935,300c0,13 -163.81855,8 -172.00947,-5z"/><path id="svg_11" d="m6434.52592,571c-68.80379,-17 -75.35653,-22 -98.29113,-75c-19.65823,-46 -29.48734,-56 -58.97468,-56c-21.29641,0 -39.31645,-8 -44.23101,-20c-6.55274,-15 0,-20 22.9346,-20c16.38185,0 31.12552,-4 31.12552,-9c0,-6 -29.48734,-82 -65.52742,-171c-34.40189,-88 -60.61286,-167 -54.06012,-175c13.10548,-23 55.69831,-34 155.62762,-41l90.1002,-6l11.4673,32c14.74367,47 13.10548,50 -21.29641,50c-18.02004,0 -37.67827,5 -42.59282,10c-6.55274,6 8.19093,61 32.76371,123c76.99472,202 67.1656,187 131.05484,187c45.86919,0 57.33649,4 57.33649,20c0,16 -11.4673,20 -49.14556,20c-26.21097,0 -49.14556,1 -49.14556,3c0,1 14.74367,35 31.12552,75c34.40189,80 34.40189,81 -80.27109,53z"/><path id="svg_12" d="m9784.61521,571c-80.27109,-17 -81.90927,-19 -106.48206,-74c-19.65823,-49 -29.48734,-57 -60.61286,-57c-26.21097,0 -37.67827,-6 -37.67827,-20c0,-11 11.4673,-20 24.57278,-20c34.40189,0 31.12552,-13 -32.76371,-170c-85.18564,-207 -81.90927,-213 93.37657,-226l90.1002,-6l16.38185,41c16.38185,39 16.38185,41 -19.65823,41c-21.29641,0 -40.95464,7 -45.86919,15c-6.55274,8 16.38185,80 47.50738,160l58.97468,145l55.69831,0c44.23101,0 55.69831,4 55.69831,20c0,15 -11.4673,20 -47.50738,20l-47.50738,0l31.12552,73c16.38185,39 31.12552,73 31.12552,75c0,4 -24.57278,0 -106.48206,-17z"/><path id="svg_13" d="m12032.20568,572c-70.44198,-14 -78.6329,-20 -95.01476,-56c-29.48734,-73 -32.76371,-76 -63.88923,-76c-16.38185,0 -34.40189,-7 -39.31645,-16c-14.74367,-23 -13.10548,-24 24.57278,-24c24.57278,0 32.76371,-5 27.84915,-17c-4.91456,-10 -36.04008,-89 -70.44198,-175c-60.61286,-150 -62.25105,-158 -34.40189,-176c29.48734,-21 199.85863,-40 222.79322,-25c6.55274,4 18.02004,22 24.57278,40c8.19093,28 4.91456,32 -27.84915,35c-55.69831,4 -54.06012,34 8.19093,183c54.06012,128 55.69831,130 103.20568,133c80.27109,6 99.92931,42 22.9346,42c-57.33649,0 -55.69831,-2 -24.57278,70c39.31645,89 42.59282,87 -78.6329,62z"/><path id="svg_14" d="m768.04238,232c-45.86919,-115 -83.54746,-214 -83.54746,-220c0,-8 29.48734,-12 81.90927,-12c93.37657,0 72.08016,-25 165.45673,203c27.84915,71 62.25105,135 75.35653,143c31.12552,19 85.18564,18 98.29113,-3c4.91456,-9 -14.74367,-80 -44.23101,-157c-29.48734,-78 -57.33649,-151 -62.25105,-163c-6.55274,-21 -1.63819,-23 75.35653,-23c96.65294,0 73.71835,-28 173.64766,217c68.80379,166 72.08016,188 24.57278,203c-44.23101,15 -165.45673,15 -208.04955,1c-45.86919,-15 -52.42194,-14 -42.59282,4c8.19093,12 -6.55274,15 -80.27109,15l-90.1002,0l-83.54746,-208z"/><path id="svg_15" d="m2132.65088,431c-145.79851,-15 -152.35125,-21 -245.72782,-264c-42.59282,-107 -44.23101,-118 -19.65823,-133c57.33649,-35 289.95883,-40 393.16451,-8c54.06012,17 60.61286,23 86.82383,85l21.29641,49l-86.82383,0c-83.54746,0 -88.46202,-1 -98.29113,-29c-13.10548,-37 -44.23101,-53 -93.37657,-49c-32.76371,3 -37.67827,9 -36.04008,44c1.63819,73 3.27637,74 175.28585,74l155.62762,0l34.40189,85c18.02004,46 34.40189,91 34.40189,99c0,37 -175.28585,63 -321.08435,47zm121.22572,-94c3.27637,-10 1.63819,-29 -3.27637,-43c-8.19093,-20 -19.65823,-24 -76.99472,-24c-67.1656,0 -67.1656,0 -57.33649,32c4.91456,17 18.02004,37 29.48734,45c26.21097,20 101.5675,12 108.12024,-10z"/><path id="svg_16" d="m2707.65398,431c-80.27109,-9 -132.69302,-26 -153.98943,-50c-21.29641,-23 -132.69302,-294 -132.69302,-320c0,-37 72.08016,-55 219.51685,-55c194.94407,1 245.72782,22 286.68246,117l14.74367,37l-85.18564,0c-81.90927,0 -85.18564,-1 -106.48206,-35c-13.10548,-24 -32.76371,-37 -60.61286,-41c-63.88923,-10 -80.27109,8 -62.25105,63l14.74367,48l157.26581,3l158.90399,3l34.40189,85c37.67827,90 34.40189,118 -11.4673,133c-40.95464,13 -198.22044,20 -273.57697,12zm114.67298,-82c6.55274,-6 6.55274,-26 1.63819,-45c-11.4673,-32 -14.74367,-34 -75.35653,-34c-57.33649,0 -65.52742,3 -65.52742,23c0,12 11.4673,33 26.21097,45c26.21097,23 95.01476,30 113.0348,11z"/><path id="svg_17" d="m3874.04203,242c-42.59282,-108 -81.90927,-207 -88.46202,-220c-8.19093,-22 -6.55274,-23 78.6329,-20l86.82383,3l65.52742,161c37.67827,89 76.99472,169 90.1002,178c27.84915,20 93.37657,21 106.48206,0c4.91456,-8 -19.65823,-87 -55.69831,-174c-36.04008,-88 -65.52742,-162 -65.52742,-165c0,-3 39.31645,-5 86.82383,-5l86.82383,0l72.08016,183c39.31645,100 73.71835,187 76.99472,193c3.27637,6 -6.55274,21 -24.57278,34c-22.9346,18 -45.86919,22 -113.0348,22c-44.23101,0 -98.29113,-5 -117.94935,-11c-27.84915,-10 -34.40189,-9 -34.40189,4c0,12 -19.65823,15 -85.18564,15l-86.82383,0l-78.6329,-198z"/><path id="svg_18" d="m5027.3246,263c-40.95464,-98 -75.35653,-185 -78.6329,-193c-19.65823,-45 117.94935,-78 227.70778,-56c52.42194,12 62.25105,12 62.25105,-1c0,-11 19.65823,-13 85.18564,-11l86.82383,3l75.35653,190c40.95464,105 80.27109,202 85.18564,218c11.4673,27 11.4673,27 -75.35653,27l-86.82383,0l-62.25105,-157c-34.40189,-87 -73.71835,-168 -85.18564,-180c-26.21097,-26 -99.92931,-31 -114.67298,-9c-8.19093,12 78.6329,251 117.94935,329c8.19093,15 -3.27637,17 -78.6329,17l-88.46202,0l-70.44198,-177z"/><path id="svg_19" d="m5798.90996,431c-91.73839,-10 -145.79851,-44 -175.28585,-112c-49.14556,-110 -27.84915,-131 129.41665,-139c88.46202,-4 99.92931,-8 104.84387,-28c8.19093,-37 -39.31645,-74 -91.73839,-70c-39.31645,3 -44.23101,7 -42.59282,41l1.63819,37l-85.18564,0l-85.18564,0l-18.02004,-51c-21.29641,-55 -8.19093,-84 40.95464,-93c145.79851,-25 335.82802,-11 391.52633,28c19.65823,13 47.50738,54 62.25105,92l27.84915,69l-42.59282,22c-32.76371,18 -62.25105,23 -132.69302,23c-103.20568,0 -117.94935,11 -88.46202,65c13.10548,23 31.12552,37 57.33649,41c55.69831,8 73.71835,-2 73.71835,-42l0,-34l81.90927,0c78.6329,0 80.27109,1 96.65294,38c26.21097,56 21.29641,80 -18.02004,96c-47.50738,18 -194.94407,27 -288.32064,17z"/><path id="svg_20" d="m6672.06282,428c-9.82911,-17 -172.00947,-416 -172.00947,-423c0,-3 39.31645,-5 86.82383,-5l86.82383,0l62.25105,159c32.76371,87 72.08016,168 85.18564,180c32.76371,27 98.29113,28 113.0348,1c9.82911,-18 22.9346,-21 95.01476,-18c75.35653,3 83.54746,5 95.01476,32c16.38185,35 -4.91456,62 -54.06012,71c-50.78375,11 -153.98943,8 -191.6677,-5c-27.84915,-9 -34.40189,-8 -34.40189,5c0,19 -160.54218,22 -172.00947,3z"/><path id="svg_21" d="m7166.79483,243c-42.59282,-109 -81.90927,-208 -88.46202,-221c-8.19093,-22 -6.55274,-23 78.6329,-20l86.82383,3l86.82383,210c47.50738,116 86.82383,213 86.82383,218c0,4 -39.31645,7 -86.82383,7l-85.18564,0l-78.6329,-197z"/><path id="svg_22" d="m7633.67769,431c-121.22572,-13 -145.79851,-38 -217.87867,-216c-65.52742,-163 -65.52742,-188 -3.27637,-199c83.54746,-14 175.28585,-16 260.47149,-7c129.41665,15 165.45673,36 194.94407,119l11.4673,32l-91.73839,0c-76.99472,0 -91.73839,-3 -91.73839,-18c0,-29 -47.50738,-62 -90.1002,-62c-55.69831,0 -62.25105,14 -40.95464,70l19.65823,49l157.26581,3l157.26581,3l29.48734,70c36.04008,88 36.04008,118 1.63819,137c-34.40189,19 -198.22044,29 -296.51157,19zm119.58754,-116c0,-40 0,-40 -68.80379,-43c-75.35653,-3 -80.27109,1 -52.42194,45c19.65823,33 44.23101,44 88.46202,41c26.21097,-3 32.76371,-11 32.76371,-43z"/><path id="svg_23" d="m8207.0426,431c-91.73839,-10 -145.79851,-44 -175.28585,-112c-49.14556,-110 -27.84915,-131 129.41665,-139c88.46202,-4 99.92931,-8 104.84387,-28c8.19093,-37 -39.31645,-74 -91.73839,-70c-39.31645,3 -44.23101,7 -42.59282,41l1.63819,37l-85.18564,0l-85.18564,0l-18.02004,-51c-32.76371,-86 6.55274,-105 217.87867,-102c135.96939,1 193.30589,13 230.98415,48c32.76371,31 75.35653,133 63.88923,156c-13.10548,24 -80.27109,39 -173.64766,39c-95.01476,0 -109.75843,12 -80.27109,65c13.10548,23 31.12552,37 57.33649,41c55.69831,8 73.71835,-2 73.71835,-42l0,-34l81.90927,0c78.6329,0 80.27109,1 96.65294,38c24.57278,53 22.9346,77 -9.82911,94c-34.40189,19 -198.22044,29 -296.51157,19z"/><path id="svg_24" d="m10013.96118,428c-3.27637,-7 -40.95464,-98 -81.90927,-203c-40.95464,-104 -78.6329,-198 -83.54746,-207c-8.19093,-16 3.27637,-18 78.6329,-18l88.46202,0l62.25105,157c34.40189,87 73.71835,168 85.18564,181c27.84915,25 101.5675,30 114.67298,7c8.19093,-12 -72.08016,-236 -117.94935,-327c-8.19093,-16 3.27637,-18 78.6329,-18l88.46202,0l62.25105,157c34.40189,87 73.71835,168 85.18564,181c29.48734,28 98.29113,30 113.0348,3c6.55274,-15 -67.1656,-223 -116.31117,-323c-8.19093,-16 3.27637,-18 80.27109,-18l90.1002,0l75.35653,191c80.27109,202 80.27109,224 4.91456,234c-101.5675,13 -170.37129,8 -208.04955,-15c-39.31645,-24 -49.14556,-25 -49.14556,-6c0,8 -14.74367,18 -34.40189,21c-52.42194,10 -180.2004,8 -199.85863,-4c-24.57278,-15 -44.23101,-14 -44.23101,4c0,19 -160.54218,22 -172.00947,3z"/><path id="svg_25" d="m12405.71196,431c-83.54746,-9 -134.33121,-29 -153.98943,-61c-9.82911,-14 -42.59282,-89 -75.35653,-168c-63.88923,-156 -60.61286,-175 21.29641,-189c72.08016,-12 271.93879,-7 322.72254,8c52.42194,16 98.29113,58 113.0348,107l9.82911,32l-90.1002,0c-75.35653,0 -90.1002,-3 -90.1002,-18c0,-33 -49.14556,-63 -95.01476,-60c-52.42194,4 -60.61286,22 -36.04008,77l18.02004,41l153.98943,0l153.98943,0l18.02004,43c9.82911,23 24.57278,58 34.40189,77c22.9346,55 18.02004,78 -21.29641,94c-45.86919,18 -194.94407,27 -283.40609,17zm114.67298,-116c0,-40 0,-40 -68.80379,-43c-75.35653,-3 -80.27109,1 -52.42194,45c19.65823,33 44.23101,44 88.46202,41c26.21097,-3 32.76371,-11 32.76371,-43z"/><path id="svg_26" d="m12759.56003,232c-45.86919,-115 -83.54746,-214 -83.54746,-220c0,-8 29.48734,-12 81.90927,-12c93.37657,0 72.08016,-25 165.45673,203c27.84915,71 62.25105,135 75.35653,143c34.40189,21 88.46202,17 98.29113,-6c6.55274,-17 22.9346,-20 95.01476,-20c91.73839,0 106.48206,8 106.48206,54c0,37 -50.78375,57 -147.43669,58c-47.50738,0 -93.37657,-5 -103.20568,-11c-26.21097,-16 -44.23101,-14 -34.40189,4c8.19093,12 -6.55274,15 -80.27109,15l-90.1002,0l-83.54746,-208z"/><path id="svg_27" d="m13326.3722,220l-90.1002,-220l88.46202,0c101.5675,0 81.90927,-23 170.37129,207c27.84915,72 62.25105,137 73.71835,143c36.04008,18 98.29113,8 103.20568,-16c3.27637,-12 -24.57278,-91 -58.97468,-177l-65.52742,-157l88.46202,0c101.5675,0 83.54746,-21 172.00947,207c44.23101,115 57.33649,136 90.1002,145c47.50738,14 88.46202,4 88.46202,-21c0,-11 -26.21097,-84 -57.33649,-162c-31.12552,-79 -57.33649,-149 -57.33649,-156c0,-9 26.21097,-13 81.90927,-13c93.37657,0 70.44198,-28 170.37129,217c68.80379,164 68.80379,174 27.84915,197c-45.86919,25 -191.6677,24 -234.26052,-2c-32.76371,-19 -34.40189,-19 -63.88923,-1c-39.31645,24 -198.22044,29 -234.26052,8c-24.57278,-14 -47.50738,-11 -36.04008,6c6.55274,12 -8.19093,15 -78.6329,15l-88.46202,0l-90.1002,-220z"/><path id="svg_28" d="m14289.62526,418c-3.27637,-13 -44.23101,-112 -88.46202,-220l-80.27109,-198l88.46202,0c76.99472,0 88.46202,3 96.65294,23c3.27637,12 44.23101,111 88.46202,220l80.27109,197l-88.46202,0c-76.99472,0 -88.46202,-3 -96.65294,-22z"/><path id="svg_29" d="m14545.18219,403c-18.02004,-40 -122.86391,-302 -147.43669,-365l-14.74367,-38l86.82383,0l86.82383,0l67.1656,167c37.67827,92 76.99472,173 86.82383,180c22.9346,18 93.37657,16 104.84387,-2c6.55274,-8 -19.65823,-89 -54.06012,-180l-65.52742,-165l85.18564,0l86.82383,0l76.99472,189c44.23101,108 72.08016,198 65.52742,210c-4.91456,11 -26.21097,23 -44.23101,27c-52.42194,10 -180.2004,6 -199.85863,-6c-22.9346,-14 -42.59282,-12 -42.59282,5c0,11 -19.65823,15 -81.90927,15c-80.27109,0 -80.27109,-1 -96.65294,-37z"/><path id="svg_30" d="m15280.72747,431c-116.31117,-15 -153.98943,-40 -186.75314,-123c-9.82911,-28 -9.82911,-28 80.27109,-28c75.35653,0 90.1002,3 90.1002,18c0,30 49.14556,63 86.82383,60c44.23101,-4 50.78375,-25 27.84915,-77l-18.02004,-41l-101.5675,0c-183.47677,0 -240.81326,-34 -268.66242,-156c-8.19093,-37 -3.27637,-44 32.76371,-59c47.50738,-19 201.49681,-23 229.34597,-6c26.21097,16 49.14556,13 37.67827,-4c-6.55274,-12 6.55274,-15 70.44198,-15l80.27109,0l75.35653,186c42.59282,102 72.08016,195 67.1656,205c-6.55274,11 -22.9346,23 -37.67827,28c-40.95464,13 -199.85863,21 -265.38605,12zm49.14556,-271c0,-6 -11.4673,-27 -24.57278,-46c-19.65823,-30 -31.12552,-35 -68.80379,-32c-36.04008,2 -47.50738,9 -50.78375,31c-3.27637,16 3.27637,35 14.74367,43c21.29641,16 129.41665,19 129.41665,4z"/></g></g></svg>